<svg width="100" height="140" version="1.1" viewBox="0 0 52.916665 74.083335" xmlns="http://www.w3.org/2000/svg" xmlns:xlink="http://www.w3.org/1999/xlink">
  <defs>
    <linearGradient id="grad2" x1="0%" y1="0%" x2="0%" y2="100%">
      <stop offset="0%" style="stop-color:rgb(239, 97, 123);stop-opacity:1"></stop>
      <stop offset="100%" style="stop-color:rgb(211, 72, 93);stop-opacity:1"></stop>
    </linearGradient>
  </defs>
  <g transform="translate(0 -223)">
    <path d="m13.8 227s2.1 7 2.1 16-3.64 21.4-5.67 21.4c-0.771 0-1.47-1.12-1.47-2.8 0-7.14 1.96-11.1 1.96-11.1s-7.14 4.13-7.14 18c0 11.7 9.57 21.8 19.6 24.8-6.04-2.16-8.16-8.63-8.13-22 0.03-16 16.1-23.1 16.1-23.1-6.46 18.1 8.68 24 8.68 32.6 0 5.36 0.0071 10.3-4.84 12.3 7.93-2.61 14.4-10.8 14.4-27.7 0-2.17-0.35-4.06-0.35-4.06s-0.56 1.33-2.17 2.38c-1.61 1.05-3.57 1.33-3.57 1.33s0.211-2.17 0.211-5.67c0-31.1-29.7-32.5-29.7-32.5z" fill="url(#grad2)" stroke-width=".42"></path>
  </g>
</svg>
